<?xml version="1.0" encoding="UTF-8" ?>
<!DOCTYPE svg PUBLIC "-//W3C//DTD SVG 1.1//EN" "http://www.w3.org/Graphics/SVG/1.1/DTD/svg11.dtd">
<svg width="96pt" height="96pt" viewBox="0 0 96 96" version="1.1" xmlns="http://www.w3.org/2000/svg">
<g id="#59609dff">
<path fill="#59609d" opacity="1.00" d=" M 56.07 11.07 C 59.22 7.98 64.69 8.03 67.79 11.19 C 73.63 17.00 79.48 22.82 85.27 28.68 C 88.46 31.96 88.39 37.89 84.80 40.83 C 73.57 51.89 62.62 63.32 51.23 74.16 C 50.96 73.91 50.40 73.42 50.12 73.17 C 48.73 71.92 47.43 70.57 46.30 69.08 C 38.76 61.16 30.97 53.43 23.09 45.84 L 22.11 45.05 C 33.41 33.70 44.74 22.39 56.07 11.07 M 57.59 13.63 C 47.19 24.11 36.63 34.44 26.33 45.00 C 34.52 53.42 42.90 61.66 51.22 69.96 C 52.28 69.55 52.94 68.55 53.77 67.82 C 63.42 58.10 73.13 48.45 82.81 38.76 C 85.28 36.66 85.19 32.37 82.79 30.25 C 77.30 24.70 71.75 19.20 66.23 13.68 C 64.03 11.13 59.78 11.00 57.59 13.63 Z" />
</g>
<g id="#969bc1ff">
<path fill="#969bc1" opacity="1.00" d=" M 57.59 13.63 C 59.78 11.00 64.03 11.13 66.23 13.68 C 71.75 19.20 77.30 24.70 82.79 30.25 C 85.19 32.37 85.28 36.66 82.81 38.76 C 73.13 48.45 63.42 58.10 53.77 67.82 C 52.94 68.55 52.28 69.55 51.22 69.96 C 42.90 61.66 34.52 53.42 26.33 45.00 C 36.63 34.44 47.19 24.11 57.59 13.63 Z" />
</g>
<g id="#e0d5d5ff">
<path fill="#e0d5d5" opacity="1.00" d=" M 13.83 54.89 C 16.82 51.77 20.06 48.92 23.09 45.84 C 30.97 53.43 38.76 61.16 46.30 69.08 C 42.42 73.29 38.34 77.32 34.25 81.33 C 32.44 83.38 29.60 83.51 27.08 83.82 C 21.49 79.63 16.95 73.95 11.79 69.16 C 9.67 67.49 7.96 64.48 8.90 61.89 C 8.99 58.77 11.96 57.01 13.83 54.89 Z" />
</g>
<g id="#cab7b7ff">
<path fill="#cab7b7" opacity="1.00" d=" M 46.30 69.08 C 47.43 70.57 48.73 71.92 50.12 73.17 C 46.56 77.50 42.15 81.25 38.26 85.37 C 35.23 88.77 28.96 87.92 27.08 83.82 C 29.60 83.51 32.44 83.38 34.25 81.33 C 38.34 77.32 42.42 73.29 46.30 69.08 Z" />
</g>
</svg>
